<?xml version="1.0" encoding="UTF-8" standalone="no"?>
<!DOCTYPE svg PUBLIC "-//W3C//DTD SVG 1.1//EN" "http://www.w3.org/Graphics/SVG/1.1/DTD/svg11.dtd">
<svg width="100%" height="100%" viewBox="0 0 237 237" version="1.1" xmlns="http://www.w3.org/2000/svg" xmlns:xlink="http://www.w3.org/1999/xlink" xml:space="preserve" xmlns:serif="http://www.serif.com/" style="fill-rule:evenodd;clip-rule:evenodd;stroke-linecap:round;stroke-linejoin:round;stroke-miterlimit:1.5;">
    <g transform="matrix(1,0,0,1,-5.90551,14.1732)">
        <circle cx="124.016" cy="135.827" r="41.339" style="fill:white;stroke:white;stroke-width:14.58px;"/>
    </g>
    <g transform="matrix(1,-1.67109e-17,-1.67109e-17,1.08333,0,-12.7953)">
        <path d="M118.11,82.677L118.11,153.543" style="fill:none;stroke:white;stroke-width:13.99px;"/>
    </g>
    <g transform="matrix(0.166667,0,0,0.166667,97.8346,28.7402)">
        <path d="M118.11,82.677L118.11,153.543" style="fill:none;stroke:white;stroke-width:87.5px;"/>
    </g>
    <path d="M118.11,153.543L82.677,194.882" style="fill:none;stroke:white;stroke-width:14.58px;"/>
    <path d="M118.11,153.543L153.543,194.882" style="fill:none;stroke:white;stroke-width:14.58px;"/>
    <g transform="matrix(1,0,0,1,0,-7.08661)">
        <path d="M100.394,82.677L135.827,82.677" style="fill:none;stroke:white;stroke-width:14.58px;"/>
    </g>
    <g transform="matrix(1,0,0,1,-0.590551,-4.72441)">
        <path d="M100.394,59.055L135.827,59.055" style="fill:none;stroke:white;stroke-width:14.58px;"/>
    </g>
    <g transform="matrix(1,0,0,0.75,11.811,41.3386)">
        <path d="M35.433,188.976L35.433,70.866" style="fill:none;stroke:white;stroke-width:16.5px;"/>
    </g>
    <g transform="matrix(1,0,0,1,11.811,-5.90551)">
        <path d="M23.622,200.787L35.433,188.976" style="fill:none;stroke:white;stroke-width:14.58px;"/>
    </g>
    <g transform="matrix(1,0,0,1,11.811,-5.90551)">
        <path d="M35.433,188.976L47.244,200.787" style="fill:none;stroke:white;stroke-width:14.58px;"/>
    </g>
    <g transform="matrix(0.74359,0,0,0.7,21.3356,31.8898)">
        <path d="M35.433,47.244L11.811,59.055" style="fill:none;stroke:white;stroke-width:20.2px;"/>
    </g>
    <g transform="matrix(0.74359,0,0,0.7,21.3356,31.8898)">
        <path d="M11.811,59.055L57.874,59.055" style="fill:none;stroke:white;stroke-width:20.2px;"/>
    </g>
    <g transform="matrix(0.74359,0,0,0.7,21.3356,31.8898)">
        <path d="M57.874,59.055L35.433,47.244" style="fill:none;stroke:white;stroke-width:20.2px;"/>
    </g>
    <g transform="matrix(1,0,0,1,11.811,11.811)">
        <path d="M17.717,82.677L53.15,82.677" style="fill:none;stroke:white;stroke-width:14.58px;"/>
    </g>
    <g transform="matrix(1,0,0,0.75,153.543,41.3386)">
        <path d="M35.433,188.976L35.433,70.866" style="fill:none;stroke:white;stroke-width:16.5px;"/>
    </g>
    <g transform="matrix(1,0,0,1,153.543,-5.90551)">
        <path d="M23.622,200.787L35.433,188.976" style="fill:none;stroke:white;stroke-width:14.58px;"/>
    </g>
    <g transform="matrix(1,0,0,1,153.543,-5.90551)">
        <path d="M35.433,188.976L47.244,200.787" style="fill:none;stroke:white;stroke-width:14.58px;"/>
    </g>
    <g transform="matrix(0.74359,0,0,0.7,163.068,31.8898)">
        <path d="M35.433,47.244L11.811,59.055" style="fill:none;stroke:white;stroke-width:20.2px;"/>
    </g>
    <g transform="matrix(0.74359,0,0,0.7,163.068,31.8898)">
        <path d="M11.811,59.055L57.874,59.055" style="fill:none;stroke:white;stroke-width:20.2px;"/>
    </g>
    <g transform="matrix(0.74359,0,0,0.7,163.068,31.8898)">
        <path d="M57.874,59.055L35.433,47.244" style="fill:none;stroke:white;stroke-width:20.2px;"/>
    </g>
    <g transform="matrix(1,0,0,1,153.543,11.811)">
        <path d="M17.717,82.677L53.15,82.677" style="fill:none;stroke:white;stroke-width:14.58px;"/>
    </g>
</svg>
