<?xml version="1.0" encoding="UTF-8" standalone="no"?>
<!DOCTYPE svg PUBLIC "-//W3C//DTD SVG 1.1//EN" "http://www.w3.org/Graphics/SVG/1.1/DTD/svg11.dtd">
<svg width="100%" height="100%" viewBox="0 0 100 100" version="1.1" xmlns="http://www.w3.org/2000/svg" xmlns:xlink="http://www.w3.org/1999/xlink" xml:space="preserve" xmlns:serif="http://www.serif.com/" style="fill-rule:evenodd;clip-rule:evenodd;stroke-linejoin:round;stroke-miterlimit:2;">
    <g transform="matrix(0.205555,0,0,0.205555,1.24287,1.24287)">
        <path d="M448.819,36.378L448.819,436.063C448.819,443.103 443.103,448.819 436.063,448.819L36.378,448.819C29.338,448.819 23.622,443.103 23.622,436.063L23.622,36.378C23.622,29.338 29.338,23.622 36.378,23.622L436.063,23.622C443.103,23.622 448.819,29.338 448.819,36.378ZM142.758,354.113L227.782,354.113C242.033,354.113 254.65,352.774 265.633,350.095C276.616,347.416 285.992,343.478 293.76,338.281C301.529,333.085 308.681,325.959 315.217,316.905C321.753,307.851 327.111,296.412 331.29,282.59C335.469,268.767 337.558,252.909 337.558,235.015C337.558,214.014 334.478,195.343 328.316,179.002C322.155,162.662 312.86,149.241 300.43,138.74C290.894,130.597 279.375,124.971 265.874,121.864C256.231,119.614 242.248,118.489 223.925,118.489L142.758,118.489L142.758,354.113ZM173.939,326.307L173.939,146.294L223.443,146.294C241.98,146.294 255.427,147.902 263.785,151.116C275.357,155.616 285.188,164.483 293.278,177.716C301.368,190.949 305.413,209.888 305.413,234.533C305.413,252.32 303.35,267.455 299.225,279.938C295.1,292.421 289.34,302.359 281.947,309.753C276.697,315.003 269.651,319.075 260.812,321.968C251.972,324.861 239.783,326.307 224.246,326.307L173.939,326.307Z" style="fill:white;"/>
    </g>
</svg>
