<?xml version="1.0" encoding="UTF-8" standalone="no"?>
<!DOCTYPE svg PUBLIC "-//W3C//DTD SVG 1.1//EN" "http://www.w3.org/Graphics/SVG/1.1/DTD/svg11.dtd">
<svg width="100%" height="100%" viewBox="0 0 100 100" version="1.1" xmlns="http://www.w3.org/2000/svg" xmlns:xlink="http://www.w3.org/1999/xlink" xml:space="preserve" xmlns:serif="http://www.serif.com/" style="fill-rule:evenodd;clip-rule:evenodd;stroke-linejoin:round;stroke-miterlimit:2;">
    <g transform="matrix(0.205555,0,0,0.205555,1.24287,1.24287)">
        <path d="M448.819,36.378L448.819,436.063C448.819,443.103 443.103,448.819 436.063,448.819L36.378,448.819C29.338,448.819 23.622,443.103 23.622,436.063L23.622,36.378C23.622,29.338 29.338,23.622 36.378,23.622L436.063,23.622C443.103,23.622 448.819,29.338 448.819,36.378ZM310.878,271.5C306.592,291.323 298.395,306.27 286.287,316.342C274.179,326.414 259.392,331.451 241.926,331.451C227.568,331.451 214.228,327.754 201.905,320.36C189.583,312.967 180.502,301.797 174.662,286.849C168.823,271.902 165.903,254.409 165.903,234.372C165.903,218.835 168.367,203.754 173.296,189.128C178.225,174.502 186.77,162.849 198.932,154.17C211.094,145.491 226.229,141.151 244.337,141.151C260.088,141.151 273.161,145.062 283.554,152.884C293.948,160.706 301.877,173.189 307.342,190.333L338.04,183.101C331.718,161.349 320.521,144.473 304.449,132.472C288.376,120.471 268.553,114.471 244.98,114.471C224.193,114.471 205.147,119.212 187.842,128.695C170.537,138.178 157.197,152.054 147.821,170.323C138.446,188.592 133.758,209.995 133.758,234.533C133.758,257.034 137.91,278.09 146.214,297.698C154.518,317.307 166.626,332.281 182.538,342.621C198.45,352.961 219.103,358.131 244.498,358.131C269.035,358.131 289.796,351.407 306.779,337.96C323.763,324.513 335.522,304.984 342.058,279.375L310.878,271.5Z" style="fill:white;"/>
    </g>
</svg>
