<?xml version="1.0" encoding="UTF-8" standalone="no"?>
<!DOCTYPE svg PUBLIC "-//W3C//DTD SVG 1.1//EN" "http://www.w3.org/Graphics/SVG/1.1/DTD/svg11.dtd">
<svg width="100%" height="100%" viewBox="0 0 100 100" version="1.1" xmlns="http://www.w3.org/2000/svg" xmlns:xlink="http://www.w3.org/1999/xlink" xml:space="preserve" xmlns:serif="http://www.serif.com/" style="fill-rule:evenodd;clip-rule:evenodd;stroke-linejoin:round;stroke-miterlimit:2;">
    <g transform="matrix(0.205555,0,0,0.205555,1.24287,1.24287)">
        <path d="M448.819,36.378L448.819,436.063C448.819,443.103 443.103,448.819 436.063,448.819L36.378,448.819C29.338,448.819 23.622,443.103 23.622,436.063L23.622,36.378C23.622,29.338 29.338,23.622 36.378,23.622L436.063,23.622C443.103,23.622 448.819,29.338 448.819,36.378ZM309.11,140.026C296.68,130.597 285.081,123.98 274.313,120.176C263.544,116.373 250.98,114.471 236.622,114.471C215.299,114.471 195.932,119.346 178.52,129.097C161.108,138.847 147.58,153.179 137.937,172.091C128.293,191.003 123.471,212.567 123.471,236.783C123.471,252.641 125.239,266.223 128.775,277.527C132.311,288.831 139.33,302.466 149.83,318.432L121.543,350.095L137.454,363.596L164.456,333.379C176.779,342.487 187.547,348.648 196.762,351.863C208.763,356.042 222.157,358.131 236.944,358.131C256.767,358.131 275.491,353.309 293.117,343.666C310.744,334.022 324.432,319.771 334.183,300.913C343.934,282.054 348.809,260.57 348.809,236.462C348.809,219.746 346.666,204.638 342.38,191.137C339.165,180.85 332.951,168.85 323.736,155.134L352.023,123.311L336.112,109.81L309.11,140.026ZM289.823,161.724L169.921,295.93C164.456,285.429 160.867,276.589 159.152,269.41C156.795,259.767 155.616,248.73 155.616,236.301C155.616,204.691 163.278,180.931 178.6,165.019C193.923,149.107 213.317,141.151 236.783,141.151C246.962,141.151 255.829,142.598 263.383,145.491C270.937,148.384 279.75,153.795 289.823,161.724ZM303.002,178.279C312.11,195.316 316.664,214.978 316.664,237.265C316.664,267.053 309.056,290.198 293.841,306.699C278.625,323.2 259.338,331.451 235.979,331.451C225.371,331.451 215.514,329.683 206.406,326.147C199.441,323.468 191.833,318.753 183.583,312.003L303.002,178.279Z" style="fill:white;"/>
    </g>
</svg>
