<?xml version="1.0" encoding="UTF-8" standalone="no"?>
<!DOCTYPE svg PUBLIC "-//W3C//DTD SVG 1.1//EN" "http://www.w3.org/Graphics/SVG/1.1/DTD/svg11.dtd">
<svg width="100%" height="100%" viewBox="0 0 100 100" version="1.1" xmlns="http://www.w3.org/2000/svg" xmlns:xlink="http://www.w3.org/1999/xlink" xml:space="preserve" xmlns:serif="http://www.serif.com/" style="fill-rule:evenodd;clip-rule:evenodd;stroke-linejoin:round;stroke-miterlimit:2;">
    <g transform="matrix(0.205555,0,0,0.205555,1.24287,1.24287)">
        <path d="M448.819,36.378L448.819,436.063C448.819,443.103 443.103,448.819 436.063,448.819L36.378,448.819C29.338,448.819 23.622,443.103 23.622,436.063L23.622,36.378C23.622,29.338 29.338,23.622 36.378,23.622L436.063,23.622C443.103,23.622 448.819,29.338 448.819,36.378ZM162.688,354.113L193.869,354.113L193.869,247.069L304.449,247.069L304.449,219.264L193.869,219.264L193.869,146.294L321.646,146.294L321.646,118.489L162.688,118.489L162.688,354.113Z" style="fill:white;"/>
    </g>
</svg>
