<?xml version="1.0" encoding="UTF-8" standalone="no"?>
<!DOCTYPE svg PUBLIC "-//W3C//DTD SVG 1.1//EN" "http://www.w3.org/Graphics/SVG/1.1/DTD/svg11.dtd">
<svg width="100%" height="100%" viewBox="0 0 100 100" version="1.1" xmlns="http://www.w3.org/2000/svg" xmlns:xlink="http://www.w3.org/1999/xlink" xml:space="preserve" xmlns:serif="http://www.serif.com/" style="fill-rule:evenodd;clip-rule:evenodd;stroke-linejoin:round;stroke-miterlimit:2;">
    <g transform="matrix(0.205555,0,0,0.205555,1.24287,1.24287)">
        <path d="M448.819,36.378L448.819,436.063C448.819,443.103 443.103,448.819 436.063,448.819L36.378,448.819C29.338,448.819 23.622,443.103 23.622,436.063L23.622,36.378C23.622,29.338 29.338,23.622 36.378,23.622L436.063,23.622C443.103,23.622 448.819,29.338 448.819,36.378ZM150.554,354.113L240.399,354.113C255.4,354.113 268.071,352.8 278.411,350.175C288.751,347.55 297.35,343.666 304.208,338.523C311.065,333.379 316.825,326.066 321.486,316.583C326.147,307.101 328.477,296.841 328.477,285.804C328.477,272.089 324.647,260.195 316.985,250.123C309.324,240.051 298.368,232.926 284.117,228.747C295.153,223.282 303.404,216.103 308.869,207.209C314.333,198.316 317.066,188.833 317.066,178.761C317.066,167.939 313.985,157.572 307.824,147.66C301.663,137.749 293.144,130.409 282.268,125.641C271.393,120.873 256.954,118.489 238.953,118.489L150.554,118.489L150.554,354.113ZM181.734,326.307L181.734,245.301L236.22,245.301C251.222,245.301 262.713,246.614 270.696,249.239C278.679,251.864 284.92,256.418 289.421,262.901C293.921,269.384 296.171,277.018 296.171,285.804C296.171,293.305 294.618,299.922 291.51,305.654C288.403,311.387 284.438,315.753 279.616,318.753C274.795,321.753 268.794,323.896 261.615,325.182C257.543,325.932 250.472,326.307 240.399,326.307L181.734,326.307ZM181.734,217.496L181.734,146.294L228.827,146.294C245.757,146.294 257.704,147.393 264.669,149.589C271.634,151.786 276.991,155.858 280.742,161.804C284.492,167.751 286.367,174.636 286.367,182.458C286.367,190.708 284.358,197.566 280.34,203.031C276.322,208.495 270.348,212.406 262.419,214.764C256.418,216.585 246.507,217.496 232.685,217.496L181.734,217.496Z" style="fill:white;"/>
    </g>
</svg>
